<mxfile host="Electron" agent="Mozilla/5.0 (Windows NT 10.0; Win64; x64) AppleWebKit/537.36 (KHTML, like Gecko) draw.io/28.1.2 Chrome/138.0.7204.243 Electron/37.4.0 Safari/537.36" version="28.1.2">
  <diagram name="Trang-1" id="gZfgvnxJgc1aAJ_Zkn4S">
    <mxGraphModel dx="922" dy="825" grid="1" gridSize="10" guides="1" tooltips="1" connect="1" arrows="1" fold="1" page="1" pageScale="1" pageWidth="827" pageHeight="1169" math="0" shadow="0">
      <root>
        <mxCell id="0" />
        <mxCell id="1" parent="0" />
        <mxCell id="FP7LNfIfwd3vIWmjHv3F-3" style="edgeStyle=orthogonalEdgeStyle;rounded=0;orthogonalLoop=1;jettySize=auto;html=1;" parent="1" source="FP7LNfIfwd3vIWmjHv3F-1" target="FP7LNfIfwd3vIWmjHv3F-2" edge="1">
          <mxGeometry relative="1" as="geometry" />
        </mxCell>
        <mxCell id="FP7LNfIfwd3vIWmjHv3F-1" value="Bắt đầu" style="ellipse;whiteSpace=wrap;html=1;" parent="1" vertex="1">
          <mxGeometry x="354" y="160" width="120" height="80" as="geometry" />
        </mxCell>
        <mxCell id="FP7LNfIfwd3vIWmjHv3F-5" style="edgeStyle=orthogonalEdgeStyle;rounded=0;orthogonalLoop=1;jettySize=auto;html=1;exitX=0.5;exitY=1;exitDx=0;exitDy=0;" parent="1" source="FP7LNfIfwd3vIWmjHv3F-2" target="FP7LNfIfwd3vIWmjHv3F-4" edge="1">
          <mxGeometry relative="1" as="geometry" />
        </mxCell>
        <mxCell id="FP7LNfIfwd3vIWmjHv3F-2" value="Nhập số nguyên a,b" style="shape=parallelogram;perimeter=parallelogramPerimeter;whiteSpace=wrap;html=1;fixedSize=1;" parent="1" vertex="1">
          <mxGeometry x="341" y="320" width="146" height="60" as="geometry" />
        </mxCell>
        <mxCell id="FP7LNfIfwd3vIWmjHv3F-8" style="edgeStyle=orthogonalEdgeStyle;rounded=0;orthogonalLoop=1;jettySize=auto;html=1;exitX=1;exitY=0.5;exitDx=0;exitDy=0;entryX=0.5;entryY=0;entryDx=0;entryDy=0;" parent="1" source="FP7LNfIfwd3vIWmjHv3F-4" target="FP7LNfIfwd3vIWmjHv3F-6" edge="1">
          <mxGeometry relative="1" as="geometry" />
        </mxCell>
        <mxCell id="FP7LNfIfwd3vIWmjHv3F-11" value="không" style="edgeLabel;html=1;align=center;verticalAlign=middle;resizable=0;points=[];" parent="FP7LNfIfwd3vIWmjHv3F-8" vertex="1" connectable="0">
          <mxGeometry x="-0.4536" relative="1" as="geometry">
            <mxPoint as="offset" />
          </mxGeometry>
        </mxCell>
        <mxCell id="FP7LNfIfwd3vIWmjHv3F-9" style="edgeStyle=orthogonalEdgeStyle;rounded=0;orthogonalLoop=1;jettySize=auto;html=1;exitX=0;exitY=0.5;exitDx=0;exitDy=0;entryX=0.5;entryY=0;entryDx=0;entryDy=0;" parent="1" source="FP7LNfIfwd3vIWmjHv3F-4" target="FP7LNfIfwd3vIWmjHv3F-7" edge="1">
          <mxGeometry relative="1" as="geometry" />
        </mxCell>
        <mxCell id="FP7LNfIfwd3vIWmjHv3F-10" value="có" style="edgeLabel;html=1;align=center;verticalAlign=middle;resizable=0;points=[];" parent="FP7LNfIfwd3vIWmjHv3F-9" vertex="1" connectable="0">
          <mxGeometry x="-0.3831" y="-3" relative="1" as="geometry">
            <mxPoint as="offset" />
          </mxGeometry>
        </mxCell>
        <mxCell id="FP7LNfIfwd3vIWmjHv3F-4" value="n % 2= 0?" style="rhombus;whiteSpace=wrap;html=1;" parent="1" vertex="1">
          <mxGeometry x="371" y="460" width="86" height="90" as="geometry" />
        </mxCell>
        <mxCell id="FP7LNfIfwd3vIWmjHv3F-16" style="edgeStyle=orthogonalEdgeStyle;rounded=0;orthogonalLoop=1;jettySize=auto;html=1;entryX=1;entryY=0.5;entryDx=0;entryDy=0;" parent="1" source="FP7LNfIfwd3vIWmjHv3F-6" target="FP7LNfIfwd3vIWmjHv3F-12" edge="1">
          <mxGeometry relative="1" as="geometry">
            <Array as="points">
              <mxPoint x="560" y="760" />
            </Array>
          </mxGeometry>
        </mxCell>
        <mxCell id="FP7LNfIfwd3vIWmjHv3F-6" value="Xuất số lẻ" style="shape=parallelogram;perimeter=parallelogramPerimeter;whiteSpace=wrap;html=1;fixedSize=1;" parent="1" vertex="1">
          <mxGeometry x="500" y="585" width="120" height="60" as="geometry" />
        </mxCell>
        <mxCell id="FP7LNfIfwd3vIWmjHv3F-14" style="edgeStyle=orthogonalEdgeStyle;rounded=0;orthogonalLoop=1;jettySize=auto;html=1;entryX=0;entryY=0.5;entryDx=0;entryDy=0;" parent="1" source="FP7LNfIfwd3vIWmjHv3F-7" target="FP7LNfIfwd3vIWmjHv3F-12" edge="1">
          <mxGeometry relative="1" as="geometry">
            <Array as="points">
              <mxPoint x="250" y="760" />
            </Array>
          </mxGeometry>
        </mxCell>
        <mxCell id="FP7LNfIfwd3vIWmjHv3F-7" value="Xuất số chẵn" style="shape=parallelogram;perimeter=parallelogramPerimeter;whiteSpace=wrap;html=1;fixedSize=1;" parent="1" vertex="1">
          <mxGeometry x="190" y="585" width="120" height="60" as="geometry" />
        </mxCell>
        <mxCell id="FP7LNfIfwd3vIWmjHv3F-12" value="Kết thúc" style="ellipse;whiteSpace=wrap;html=1;" parent="1" vertex="1">
          <mxGeometry x="354" y="720" width="120" height="80" as="geometry" />
        </mxCell>
      </root>
    </mxGraphModel>
  </diagram>
</mxfile>
